<?xml version="1.0" encoding="utf-8"?>
<!-- Generator: Adobe Illustrator 27.5.0, SVG Export Plug-In . SVG Version: 6.00 Build 0)  -->
<svg version="1.1" xmlns="http://www.w3.org/2000/svg" xmlns:xlink="http://www.w3.org/1999/xlink" x="0px" y="0px"
	 viewBox="0 0 1100 800" style="enable-background:new 0 0 1100 800;" xml:space="preserve">
<g id="Background">
	<rect style="fill:#8EC3CB;" width="1100" height="800"/>
</g>
<g id="Shadow">
	<g style="opacity:0.4;">
		<path style="fill:#F1F2F2;" d="M519.63,641.012c-25.127,0.103-50.253,0.936-75.335,4.782c-9.457,1.45-18.716,4.64-28.195,5.927
			c-18.933,2.57-37.528,7.365-56.528,9.576c-15.301,1.781-30.665,2.832-45.922,5.091c-14.303,2.119-30.139,1.63-44.332-1.87
			c-10.507-2.591-21.063-4.05-31.394-8.212c-11.557-4.656-24.112-7.984-36.154-7.864c-17.171,0.171-33.892,0.191-50.324,8.411
			c-5.768,2.886-12.83,7.629-17.21,13.685c-10.027,13.863-11.384,48.454-1.372,62.832c16.864,24.199,52.855,33.694,76.493,34.142
			c25.902,0.491,51.065-2.16,77.005-3.719c24.104-1.448,48.147-3.509,72.291-3.437c49.311,0.148,98.629,0,147.851-4.542
			c46.245-4.267,92.606-2.802,138.953-2.802c47.526,0,94.731,0.515,141.915,9.224c20.559,3.794,41.503,5.123,62.164,7.781
			c18.504,2.381,36.286-0.047,54.717-2.247c15.476-1.848,30.851-7.328,44.911-16.592c11.129-7.333,30.97-30.115,34.383-47.618
			c9.568-49.071-134.845-47.892-157.018-47.781c-24.805,0.124-49.806,1.248-74.591-0.055c-10.426-0.549-20.698-3.358-30.874-6.437
			c-10.135-3.066-20.347-2.287-30.625-3.576c-42.861-5.374-85.818-4.589-128.816-4.589
			C547.629,641.123,533.629,640.954,519.63,641.012z"/>
	</g>
</g>
<g id="Object">
	<g>
		<path style="fill:#FFFFFF;" d="M522.059,113.878c161.339-50.465,240.683-12.312,240.683-12.312l5.996,117.208
			c0,0-79.344-38.153-240.683,12.312c-161.338,50.465-233.26,11.933-233.26,11.933l-5.996-117.208
			C288.799,125.811,360.721,164.343,522.059,113.878z"/>
		<g>
			<path style="fill:#3B455A;" d="M379.415,230.074l-17.047-48.579l6.192-0.321l8.175,23.941c2.255,6.561,4.213,12.478,5.698,18.198
				l0.132-0.007c0.956-5.774,2.478-12.089,4.121-18.633l6.247-24.76l6.127-0.318l-13.32,50.152L379.415,230.074z"/>
			<path style="fill:#3B455A;" d="M443.22,197.239c2.599,16.804-5.214,27.136-16.427,28.871
				c-11.604,1.794-21.299-6.941-23.584-21.716c-2.398-15.5,4.704-26.982,16.438-28.798
				C431.642,173.741,440.979,182.754,443.22,197.239z M409.248,203.311c1.614,10.43,8.144,18.987,17.075,17.605
				c8.996-1.391,12.659-11.376,10.944-22.459c-1.501-9.706-7.633-19.141-17.086-17.679
				C410.794,182.231,407.59,192.59,409.248,203.311z"/>
			<path style="fill:#3B455A;" d="M445.449,171.783l5.59-1.298l9.957,42.905l18.507-4.296l1.21,5.211l-24.098,5.594L445.449,171.783
				z"/>
			<path style="fill:#3B455A;" d="M477.938,163.857l8.199,28.069c3.103,10.622,8.66,13.884,14.358,12.219
				c6.331-1.85,9.027-7.677,5.965-18.159l-8.199-28.068l5.572-1.628l8.076,27.645c4.254,14.562-0.901,22.558-10.145,25.26
				c-8.738,2.553-16.945-1.081-21.24-15.783l-8.158-27.928L477.938,163.857z"/>
			<path style="fill:#3B455A;" d="M527.009,200.495l-12.687-47.746l6.056-1.61l20.189,20.496c4.674,4.748,8.497,9.117,11.836,13.463
				l0.109-0.104c-2.204-6.24-3.875-12.014-5.851-19.453l-5.308-19.978l5.228-1.389l12.687,47.746l-5.611,1.491l-20.08-20.6
				c-4.408-4.517-8.727-9.208-12.268-13.804l-0.173,0.122c1.919,5.936,3.571,11.641,5.68,19.574l5.421,20.402L527.009,200.495z"/>
			<path style="fill:#3B455A;" d="M567.989,145.173l-13.259,2.654l-1.065-5.317l32.275-6.462l1.065,5.319l-13.324,2.667
				l8.633,43.118l-5.692,1.139L567.989,145.173z"/>
			<path style="fill:#3B455A;" d="M619.466,157.839l-17.125,2.354l2.428,17.647l19.086-2.624l0.729,5.302l-24.772,3.405
				l-6.733-48.947l23.791-3.271l0.729,5.302l-18.104,2.488l2.127,15.468l17.125-2.354L619.466,157.839z"/>
			<path style="fill:#3B455A;" d="M652.588,155.245l-17.244,1.162l1.197,17.772l19.218-1.296l0.36,5.338l-24.945,1.681
				l-3.322-49.291l23.957-1.615l0.36,5.338l-18.231,1.229l1.05,15.577l17.244-1.162L652.588,155.245z"/>
			<path style="fill:#3B455A;" d="M663.422,129.335c2.914-0.608,7.075-0.899,11.032-0.827c6.133,0.112,10.068,1.429,12.787,4.264
				c2.203,2.238,3.395,5.633,3.325,9.444c-0.118,6.522-3.889,10.779-8.604,12.453l-0.004,0.22c3.405,1.381,5.386,4.935,6.348,10.085
				c1.327,6.914,2.295,11.698,3.184,13.619l-5.936-0.108c-0.7-1.405-1.612-5.674-2.754-11.852c-1.196-6.84-3.523-9.447-8.729-9.761
				l-5.408-0.098l-0.388,21.398l-5.737-0.103L663.422,129.335z M668.752,151.937l5.87,0.107c6.133,0.11,10.092-3.556,10.194-9.2
				c0.116-6.375-3.989-9.236-10.054-9.419c-2.77-0.05-4.754,0.208-5.683,0.484L668.752,151.937z"/>
		</g>
		<g>
			<g>
				<path style="fill:#D34E4E;" d="M240.53,99.781c-17.021,4.345-34.815,20.346-34.925,36.193
					c-9.833-12.427-38.226-12.391-54.319-5.348c-42.468,18.585-40.502,72.395-10.709,98.791
					c16.035,14.207,35.666,24.699,56.059,33.168c17.077,7.092,59.298,20.072,59.372,19.953c0.132,0.048,25.439-36.154,34.542-52.249
					c10.871-19.221,19.896-39.568,23.801-60.632C321.608,130.519,285.446,88.315,240.53,99.781z"/>
			</g>
		</g>
		<g>
			<path style="fill:#EBB044;" d="M725.07,326.951c0,0-50.326,24.617-65.469,15.432c-1.923-1.166-46.791-18.935-46.791-18.935
				l-9.24,10.302l51.529,35.17l17.128,2.906l43.266-12.401L725.07,326.951z"/>
		</g>
		<g>
			<path style="fill:#EBB044;" d="M758.493,331.433c0,0,29.083,47.885,46.787,48.324c2.248,0.056,49.611,9.312,49.611,9.312
				l2.219,13.66l-62.361,1.799l-15.987-6.797l-29.732-33.79L758.493,331.433z"/>
		</g>
		<g>
			<g>
				<g>
					<path style="fill:#EBB044;" d="M752.113,327.834c0.216,0.08,0.431,0.161,0.643,0.243c10.198,3.945,18.233,21.717,22.838,32.161
						c11.888,26.96,17.112,55.066,18.107,84.882c0.536,16.055,0.377,32.137-0.103,48.204c-0.132,4.439-3.906,44.184-1.937,45.13
						c-20.203-9.697-40.743-18.854-62.24-24.37c-21.497-5.517-44.104-7.3-65.799-2.198c6.507-50.455,15.977-101.797,29.683-150.563
						c1.639-5.833,2.731-12.049,5.166-17.578c2.805-6.368,7.029-8.255,12.364-12.026c1.828-1.292,3.669-2.592,5.679-3.495
						C727.11,323.468,741.371,323.876,752.113,327.834z"/>
				</g>
				<g>
					<g>
						<g>
							<polygon style="fill:#EAC1A4;" points="783.46,486.544 760.504,580.477 760.116,649.683 748.889,652.133 744.379,587.778 
								733.133,469.928 							"/>
						</g>
					</g>
					<g>
						<polygon style="fill:#3B455A;" points="748.751,654.073 746.949,661.096 748.567,674.865 757.669,674.864 761.041,654.95 
							759.978,651.623 						"/>
					</g>
				</g>
				<g>
					<g>
						<polygon style="fill:#EAC1A4;" points="695.119,476.339 693.23,557.472 704.275,672.035 715.364,672.826 719.151,567.773 
							741.553,472.501 						"/>
					</g>
					<g>
						<polygon style="fill:#3B455A;" points="704.618,670.12 689.697,678.078 690.896,685.052 717.274,681.771 715.986,671.734 
													"/>
					</g>
				</g>
				<g>
					<polygon style="fill:#EBB044;" points="691.888,486.813 684.549,580.56 692.315,644.828 722.347,643.07 727.563,569.976 
						740.402,490.275 738.361,477.873 695.076,478.589 					"/>
				</g>
				<g>
					<polygon style="fill:#EBB044;" points="737.586,573.64 741.241,640.865 767.346,639.478 766.695,575.717 783.007,495.613 
						779.209,473.238 735.306,476.053 					"/>
				</g>
				<g>
					<path style="fill:#FFFFFF;" d="M676.464,488.515c26.88,4.053,71.601,7.102,98.481,11.155
						c1.357-48.59-3.532-104.69-15.343-151.686c-2.142-8.524-5.3-17.724-12.76-22.054c-7.993-4.639-24.924-3.976-29.779,5.074
						c-7.103,13.24-8.471,34.298-11.623,49.024C698.307,413.346,680.858,454.717,676.464,488.515z"/>
				</g>
				<g>
					<g>
						<path style="fill:#EAC1A4;" d="M718.179,288.21c7.091-18.937,30.965-11.328,35.242,5.738
							c2.818,11.241-6.195,25.615-17.501,28.387c0.219,2.779,0.32,5.567,0.3,8.354c-3.025-0.313-6.051-0.627-9.076-0.94
							c-0.936-0.097-2.023-0.291-2.458-1.125c-0.264-0.505-0.204-1.111-0.138-1.678c0.223-1.909,0.446-3.817,0.669-5.726
							c-0.217-0.104-0.433-0.211-0.65-0.326c-5.366-2.851-8.576-8.829-9.289-14.864C714.567,299.995,716.049,293.9,718.179,288.21z"
							/>
					</g>
					<g>
						<g>
							<g>
								<path style="fill:#3B455A;" d="M719.78,293.958c-4.043,5.397-3.272,12.844-2.545,19.232
									c0.644,5.664,0.361,9.157-5.862,8.555c-3.507-0.339-9.751-0.872-11.778-4.318c-1.534-2.61,1.625-8.041,3.449-10.009
									c1.393-1.503,3.821-1.694,5.174-3.233c0.558-0.634,0.876-1.44,1.154-2.238c1.135-3.258,1.774-6.688,1.888-10.136
									c0.078-2.341-0.081-4.719,0.465-6.997c0.792-3.303,4.309-6.289,6.484-8.842c4.047-4.75,14.225-9.54,19.261-3.077
									c1.146,1.472,1.452,3.415,1.63,5.272c0.107,1.109,0.178,2.253-0.161,3.314c-1.353,4.231-5.438,3.661-8.763,4.782
									C726.075,287.646,722.36,290.514,719.78,293.958z"/>
							</g>
							<g>
								<path style="fill:#3B455A;" d="M750.046,305.134c-0.752,3.064-3.422,5.861-2.616,8.911c0.359,1.359,1.361,2.436,2.118,3.62
									c2.065,3.236,2.246,7.587,0.457,10.983c6.052,1.759,12.103,3.518,18.155,5.277c0.913,0.265,1.874,0.533,2.801,0.322
									c1.981-0.45,2.839-2.737,3.372-4.697c1.051-3.859,2.093-8.019,0.722-11.777c-0.635-1.742-1.757-3.276-2.387-5.02
									c-3.029-8.389,5.983-18.349,1.455-26.034c-2.021-3.429-6.089-4.987-9.097-7.593c-5.246-4.544-7.144-12.18-12.673-16.374
									c-10.442-7.92-26.629,2.639-23.143,15.453C732.052,288.655,753.076,292.794,750.046,305.134z"/>
							</g>
						</g>
					</g>
				</g>
				<g>
					<path style="fill:#EBB044;" d="M751.356,329.287c0,0,8.775,120.627-9.913,144.451c-18.688,23.823-26.683,32.802-26.683,32.802
						l76.831,31.91C791.591,538.449,789.595,362.531,751.356,329.287z"/>
				</g>
			</g>
		</g>
		<g>
			<path style="fill:#FFFFFF;" d="M409.579,325.598c0,0-45.439,32.773-61.916,26.281c-2.092-0.824-49.319-10.749-49.319-10.749
				l-7.364,11.716l56.734,25.95l17.372-0.033l40.546-19.539L409.579,325.598z"/>
		</g>
		<g>
			<g>
				<g>
					<path style="fill:#3B455A;" d="M277.174,283.23c0,0,7.002,3.503,8.235,21.937s5.537,29.743,5.537,29.743
						s-5.494,4.163-10.573,2.384c-5.079-1.779-6.874-1.959-6.836-9.569c0.039-7.61-4.402-42.864-4.402-42.864L277.174,283.23z"/>
				</g>
			</g>
			<g>
				<g>
					<path style="fill:#3B455A;" d="M263.866,292.553c7.177,0.328,13.911,5.393,16.226,12.206c2.917-4.28,3.61-9.997,1.8-14.854
						s-6.074-8.725-11.079-10.049c-3.688,3.173-6.049,7.846-6.416,12.703L263.866,292.553z"/>
				</g>
			</g>
			<g>
				<polygon style="fill:#474EBB;" points="255.254,336.172 209.221,337.05 193.032,262.565 177.779,264.711 177.779,355.906 
					204.913,368.964 254.483,376.029 				"/>
			</g>
			<g>
				<g>
					<g>
						<g>
							<polygon style="fill:#3B455A;" points="234.626,667.009 233.819,673.557 245.545,681.999 252.618,676.398 247.158,668.903 
								235.432,660.461 							"/>
						</g>
					</g>
					<g>
						<g>
							<polygon style="fill:#3B455A;" points="239.286,466.362 236.836,486.25 253.199,555.118 234.23,664.8 246.34,669.276 
								280.85,562.541 286.636,531.398 287.889,465.23 							"/>
						</g>
					</g>
				</g>
				<g>
					<g>
						<g>
							<polygon style="fill:#3B455A;" points="332.649,490.617 302.974,674.451 291.308,674.197 291.778,555.957 272.35,472.535 
															"/>
						</g>
					</g>
					<g>
						<g>
							<polygon style="fill:#3B455A;" points="291.407,672.74 291.263,679.364 303.734,686.261 310.186,679.775 304.022,673.015 
															"/>
						</g>
					</g>
				</g>
				<g>
					<g>
						<g>
							<path style="fill:#474EBB;" d="M232.242,470.245c10.1-59.119,7.893-102.381,8.607-114.231
								c0.714-11.85,8.973-17.828,8.978-17.83c3.583-0.736,6.737-3.021,10.358-3.871c24.495-5.749,37.367,13.594,46.038,34.344
								c10.684,25.566,19.554,51.936,26.604,78.794c6.188,23.572,12.385,47.355,14.666,71.727
								c0.941,10.057,1.701,19.591-9.116,23.783c-17.237,6.68-36.431,6.109-54.524,7.978c-20.783,2.147-41.579,3.593-62.462,4.028
								C210.489,555.194,222.142,529.364,232.242,470.245z"/>
						</g>
					</g>
				</g>
			</g>
			<g>
				<polygon style="fill:#EAC1A4;" points="183.135,264.12 174.2,254.779 177.661,238.772 186.476,238.964 188.764,253.02 
					193.179,255.806 193.032,262.565 				"/>
			</g>
			<g>
				<polygon style="fill:#474EBB;" points="272.012,333.353 295.255,338.008 341.955,385.193 397.481,384.326 400.22,401.504 
					335.157,411.502 282.494,376.119 				"/>
			</g>
			<g>
				<polygon style="fill:#FFFFFF;" points="277.737,334.716 280.659,397.882 249.627,337.223 259.132,334.06 265.912,332.185 				
					"/>
			</g>
			<g>
				<polygon style="fill:#EAC1A4;" points="398.006,388.609 408.351,382.487 421.384,386.048 421.231,393.068 399.298,396.714 				
					"/>
			</g>
			<g>
				<g>
					<path style="fill:#EAC1A4;" d="M279.661,298.524c-7.657-17.682-29.976-9.296-33.212,7.151
						c-1.84,9.353,2.785,25.776,13.99,26.173c0.53,1.599,1.433,4.616,2.927,5.428c1.618,0.879,5.622-1.209,7.203-1.972
						c0.439-0.212,0.892-0.454,1.151-0.866c0.325-0.516,0.141-1.661-0.133-2.913c1.206-0.36,2.406-0.881,3.589-1.589
						c4.961-2.97,7.722-8.814,8.106-14.591C283.665,309.567,281.962,303.838,279.661,298.524z"/>
				</g>
			</g>
			<g>
				<g>
					<path style="fill:#3B455A;" d="M270.358,279.908c0,0,4.484,9.515-7.687,15.183c-12.171,5.668-18.225,17.559-13.633,27.633
						c4.592,10.075,15.809,15.733,11.428,19.644c-4.381,3.911-23.372,5.27-23.372,5.27s-19.536-34.774-8.15-54.299
						C240.331,273.813,261.907,268.364,270.358,279.908z"/>
				</g>
			</g>
		</g>
		<g>
			<path style="fill:#FFFFFF;" d="M834.56,169.868c0,0-19.911,22.76-28.284,85.791l16.483,2.751c0,0,3.788-55.648,20.105-84.778
				L834.56,169.868z"/>
			<g>
				<path style="fill:#76CC9F;" d="M932.107,89.909c0,0-57.452,0.984-82.699,23.262c-25.246,22.278-13.976,62.048-13.976,62.048
					s38.058,16.131,63.304-6.148C923.983,146.793,932.107,89.909,932.107,89.909z"/>
				<path style="fill:#FFFFFF;" d="M835.433,175.219c0,0,2.196,0.926,5.857,2.026l54.919-55.657l-62.057,47.567
					C834.787,172.925,835.433,175.219,835.433,175.219z"/>
			</g>
			<g>
				<path style="fill:#76CC9F;" d="M746.703,112.876c0,0,1.073,51.27,21.04,73.725c19.968,22.455,55.421,12.262,55.421,12.262
					s14.267-34.019-5.701-56.475C797.496,119.933,746.703,112.876,746.703,112.876z"/>
				<path style="fill:#FFFFFF;" d="M823.165,198.863c0,0,0.819-1.963,1.788-5.234l-49.857-48.823l42.661,55.221
					C821.119,199.446,823.165,198.863,823.165,198.863z"/>
			</g>
			<path style="fill:#63BA8B;" d="M835.433,175.219c0,0,62.282-0.791,86.904-46.277C922.336,128.942,904.3,203.501,835.433,175.219z
				"/>
		</g>
		<g>
			<g>
				<polygon style="fill:#353A49;" points="655.367,669.142 656.404,677.09 641.545,687.111 632.561,680.201 639.471,671.216 
					654.33,661.194 				"/>
				<g>
					<polygon style="fill:#3B455A;" points="655.865,666.472 644.201,565.111 657.793,451.587 654.643,427.45 592.982,425.223 
						590.831,464.523 601.371,565.347 640.511,671.682 					"/>
				</g>
				<g>
					<polygon style="fill:#3B455A;" points="547.763,436.669 547.792,538.978 568.632,670.644 583.455,670.469 591.374,548.657 
						610.215,426.716 					"/>
					<polygon style="fill:#353A49;" points="583.443,676.72 567.51,684.924 559.4,677.005 567.32,668.895 583.349,668.706 					"/>
				</g>
				<g>
					<path style="fill:#D34E4E;" d="M664.21,471.246c-0.15-4.433-0.403-8.133-0.441-9.454c-0.34-11.892-1.422-23.757-2.933-35.563
						c-1.354-10.579-3.087-36.847-4.918-47.36c-1.512-8.681-6.762-30.345-10.542-38.392c-9.399-20.012-6.51-21.868-47.647-27.738
						c-18.029-2.573-22.268,8.668-36.979,21.612c-1.451,1.277-1.357,8.862-1.69,10.871c-0.587,3.539-1.217,7.071-1.94,10.587
						c-0.568,2.764-1.195,5.519-1.9,8.256l0.001-0.001c0,0-12.265,56.317-20.423,68.288c-8.158,11.971-25.027,28.717,3.263,38.87
						c5.013,1.61,10.057,3.142,15.273,3.956c0,0,23.116-2.613,35.006-2.546c10.951,0.061,21.949,1.149,32.718,2.985
						c7.201,1.19,14.551,2.925,20.997,6.276c6.15,3.198,10.593,7.91,16.833,11.222c0.591,0.314,1.239,0.638,1.91,0.544
						C664.38,493.159,664.525,480.577,664.21,471.246z"/>
				</g>
				<g>
					<path style="fill:#EAC1A4;" d="M597.693,318.388c2.077,1.021,6.975,1.379,12.08-0.631c1.029-0.405,1.722-1.399,1.705-2.505
						c-0.046-3.103-0.302-6.203-0.764-9.272c3.829-1.354,8.253-3.383,8.914-7.391c0.208-1.262-0.013-2.552-0.233-3.812
						c-0.91-5.21-1.821-10.42-2.731-15.63c-0.315-1.802-0.65-3.657-1.633-5.199c-1.725-2.707-5.066-3.886-8.229-4.429
						c-8.073-1.386-16.864,0.379-23.112,5.677c-1.663,1.41-3.165,3.104-3.896,5.158c-1.126,3.167-0.273,6.656,0.587,9.906
						c0.794,2.999,1.587,5.999,2.381,8.998c0.913,3.45,2.229,7.371,5.557,8.659c1.767,0.684,3.851,0.479,5.452,1.493
						C596.593,311.197,596.221,315.389,597.693,318.388z"/>
					<path style="fill:#3B455A;" d="M551.017,266.5c-0.795-1.3-1.651-2.554-2.609-3.73c-2.074-2.547-4.628-4.73-6.299-7.558
						c-1.67-2.829-2.264-6.667-0.271-9.278c1.286-1.685,3.377-2.531,5.41-3.133c6.698-1.985,13.931-2.132,20.704-0.421
						c6.451,1.629,12.228,4.337,18.714,1.9c6.095-2.289,10.502-1.369,16.88,0.893c6.903,2.448,16.164,3.011,22.414,6.475
						c2.61,1.446,4.695,3.71,6.321,6.211c5.635,8.668,5.688,20.633,0.131,29.35c-1.247,1.956-2.74,3.744-4.309,5.452
						c-3.248,3.535-7.132,7.902-11.607,9.218c-0.114-4.004,3.51-16.639,0.429-19.916c-4.891-5.199-15.923-3.362-21.976-2.068
						c-6.602,1.411-12.48,6.099-19.026,7.111c-4.71,0.728-10.728-1.571-14.739-3.999C556.237,280.008,553.919,271.245,551.017,266.5
						z"/>
				</g>
			</g>
			<g>
				<polygon style="fill:#AA6755;" points="465.741,337.97 452.982,329.788 456.241,324.182 466.219,327.85 466.53,324.484 
					476.596,332.815 473.995,339.1 				"/>
				<polygon style="fill:#D34E4E;" points="585.028,314.636 518.588,342.021 476.596,332.815 472.51,340.85 510.847,368.964 
					563.6,362.583 				"/>
			</g>
			<g>
				<polygon style="fill:#EAC1A4;" points="677.49,211.475 676.397,194.832 669.263,194.99 667.489,206.552 664.081,205.061 
					666.752,219.188 674.189,220.025 				"/>
				<polygon style="fill:#D34E4E;" points="613.693,323.747 650.075,275.335 666.752,219.188 676.665,219.526 676.823,284.413 
					642.402,352.981 				"/>
			</g>
		</g>
		<g>
			<g>
				<g>
					<polygon style="fill:#3B455A;" points="400.539,676.341 400.194,683.3 413.767,690.949 421.071,684.335 414.457,677.031 
						400.884,669.382 					"/>
					<polygon style="fill:#282F3D;" points="389.088,465.183 388.04,486.318 411.681,579.302 399.922,674.062 413.589,677.507 
						451.302,563.61 451.92,529.356 442.365,458.958 					"/>
				</g>
				<g>
					<polygon style="fill:#282F3D;" points="492.993,462.99 503.674,551.288 499.467,667.099 486.656,668.499 467.075,564.201 
						438.054,460.935 					"/>
					<polygon style="fill:#3B455A;" points="487.32,673.892 501.93,679.306 508.1,671.622 500.417,665.453 486.564,666.966 					"/>
				</g>
			</g>
			<g>
				<g>
					<path style="fill:#FFFFFF;" d="M498.14,448.277c-13.245-26.846-18.57-56.299-25.537-85.27
						c-2.059-8.547-4.196-17.278-8.966-24.663c-5.478-8.48-13.03-12.27-21.39-13.717c-10.641-1.842-22.592,0.112-33.241,1.022
						c-6.406,20.144-10.625,8.729-18.154,28.48c-1.561,4.094-5.947,39.54-7.591,43.602l0,0c0,0-17.284,54.483-11.639,97.538
						c0.056,0.427,0.104,0.842,0.153,1.26c1.124,0.19,2.2,0.383,3.207,0.585c15.015,3.011,30.33,4.621,45.65,4.393
						c13.59-0.202,27.177-1.874,40.369-5.163c18.058-4.503,39.513-2.717,54.26-14.65
						C510.915,472.883,502.487,457.087,498.14,448.277z"/>
				</g>
				<g>
					<polygon style="fill:#AA6755;" points="505.647,246.733 505.063,231.587 498.578,231.555 496.682,242.015 493.622,240.577 
						495.701,253.477 502.437,254.42 					"/>
					<polygon style="fill:#FFFFFF;" points="443.694,323.617 482.349,294.34 495.701,253.477 504.699,254.028 509.497,301.325 
						468.338,360.019 					"/>
				</g>
				<g>
					<path style="fill:#AA6755;" d="M400.484,290.854c5.404-17.081,30.141-23.337,36.176-3.651
						c1.813,5.916,2.942,12.202,1.845,18.292c-1.097,6.09-4.731,11.968-10.361,14.533c-0.032,0.015-0.064,0.027-0.096,0.041
						c0.242,1.573,0.485,3.146,0.727,4.72c0.052,0.338,0.097,0.711-0.089,0.998c-0.213,0.326-0.642,0.417-1.026,0.48
						c-1.878,0.306-3.756,0.612-5.634,0.918c-0.931,0.152-1.901,0.301-2.802,0.026c-1.974-0.603-2.824-2.948-2.938-5.009
						c-0.027-0.493-0.029-0.991-0.028-1.491C405.07,317.046,396.952,302.02,400.484,290.854z"/>
					<g>
						<path style="fill:#3B455A;" d="M434.623,262.778c4.588-0.244,8.025,4.508,11.981,7.207c3.291,2.246,7.18,3.126,10.629,5.056
							c3.449,1.93,6.673,5.58,6.355,9.738c3.827-1.553,7.963-3.125,11.975-1.95c4.012,1.175,7.344,6.414,5.335,10.282
							c-1.8,3.464-6.578,3.867-8.478,7.264c-3.005,5.374,2.856,14.718-2.059,18.005c-1.182,0.79-2.695,0.865-3.86,1.683
							c-1.447,1.017-2.063,2.94-2.825,4.629c-3.451,7.658-11.919,12.072-19.699,10.267c-4.682-2.76-8.139-7.872-9.375-13.468
							c-1.49-6.744,2.228-8.697,3.401-14.783c1.282-6.652-0.179-13.964-3.912-19.578c-2.429-3.653-6.087-6.951-10.209-7.741
							c-1.676-0.322-1.277,1.139-3.055-0.349c-0.763-0.639-1.676-2.868-1.811-3.908
							C423.914,271.905,428.586,263.099,434.623,262.778z"/>
						<path style="fill:#3B455A;" d="M385.892,266.589c-2.396,0.428-4.921,0.093-7.237,0.857c-3.479,1.148-3.605,4.633-4.835,7.555
							c-1.363,3.234-3.308,7.566-5.753,9.95c-1.762,1.719-4.081,2.573-6.147,3.832c-2.067,1.259-4.043,3.219-4.249,5.822
							c-0.195,2.466,1.252,4.834,1.261,7.316c-0.053,3.694-0.865,5.512-0.089,9.366c0.4,1.989,0.859,4.099,2.185,5.555
							c1.748,1.919,4.475,2.144,6.906,1.971c2.43-0.173,4.966-0.602,7.25,0.415c4.953,2.206,3.508,7.29,4.458,11.756
							c1.447,6.796,8.734,11.373,14.811,9.581c5.152-1.52,8.572-7.011,8.887-12.721c0.158-2.859-0.725-5.621-0.537-8.48
							c0.181-2.757,2.092-6.418-0.193-8.837c-0.557-0.589-1.308-0.943-1.797-1.6c-0.395-0.531-0.577-1.211-0.668-1.881
							c-0.315-2.323,0.42-4.754,1.924-6.367c1.082-1.159,2.548-1.942,3.281-3.395c0.84-1.665,0.496-3.737,0.563-5.658
							c0.161-4.644,3.116-8.934,7.132-10.352c2.646-0.935,4.996-1.412,7.381-2.989c0.363-0.24,5.827-4.217,5.865-3.242
							c-0.068-1.697-0.907-3.256-1.77-4.694c-1.42-2.364-3.025-4.689-5.194-6.23c-7.014-4.984-8.316,4.931-14.148,3.057
							c-1.407-0.452-2.364-1.871-3.583-2.78c-2.302-1.717-5.353-1.47-7.957-0.594C391.036,264.675,388.591,266.106,385.892,266.589z
							"/>
					</g>
				</g>
			</g>
		</g>
		<g>
			<g>
				<g>
					<polygon style="fill:#B77920;" points="329.526,571.381 477.451,628.531 639.573,574.388 502.025,521.18 					"/>
				</g>
			</g>
			<g>
				<g>
					<defs>
						
							<ellipse id="SVGID_1_" transform="matrix(0.7071 -0.7071 0.7071 0.7071 -253.8969 547.3489)" cx="533.76" cy="580.155" rx="61.477" ry="61.477"/>
					</defs>
					<use xlink:href="#SVGID_1_"  style="overflow:visible;fill:#FFFFFF;"/>
					<clipPath id="SVGID_00000158028878390572038850000007133821384978439837_">
						<use xlink:href="#SVGID_1_"  style="overflow:visible;"/>
					</clipPath>
					<g style="clip-path:url(#SVGID_00000158028878390572038850000007133821384978439837_);">
						<g>
							<path style="fill:#5C5955;" d="M573.746,543.166l1.431-1.068c-0.291-0.389-7.275-9.598-21.082-14.926l-0.643,1.666
								C566.783,533.982,573.678,543.075,573.746,543.166z"/>
						</g>
						<g>
							<path style="fill:#5C5955;" d="M493.539,543.016c0.069-0.091,7.027-9.169,20.348-14.253l-0.637-1.668
								c-13.827,5.276-20.846,14.459-21.138,14.847L493.539,543.016z"/>
						</g>
						<g>
							<path style="fill:#5C5955;" d="M578.766,612.967c4.199-4.469,7.515-11.596,9.857-21.184
								c1.733-7.095,2.258-12.984,2.263-13.043l-1.779-0.155c-0.02,0.229-2.105,23.006-11.643,33.158L578.766,612.967z"/>
						</g>
						<g>
							<path style="fill:#5C5955;" d="M488.45,612.798l1.306-1.218c-9.506-10.194-11.499-32.973-11.518-33.202l-1.78,0.148
								c0.005,0.059,0.508,5.95,2.214,13.051C480.978,601.174,484.268,608.313,488.45,612.798z"/>
						</g>
						<g>
							<path style="fill:#5C5955;" d="M532.538,636.672c8.021,0.015,14.349-1.501,14.745-1.598l-0.425-1.734
								c-0.142,0.035-14.404,3.444-27.047-0.045l-0.475,1.721C523.799,636.248,528.394,636.665,532.538,636.672z"/>
						</g>
					</g>
					<g style="clip-path:url(#SVGID_00000158028878390572038850000007133821384978439837_);">
						<polygon style="fill:#3B455A;" points="533.781,557.12 554.661,572.35 546.629,596.915 520.784,596.866 512.844,572.272 
													"/>
					</g>
					<g style="clip-path:url(#SVGID_00000158028878390572038850000007133821384978439837_);">
						<polygon style="fill:#3B455A;" points="533.806,543.813 512.926,528.583 520.958,504.019 546.803,504.067 554.743,528.662 
													"/>
					</g>
					<g style="clip-path:url(#SVGID_00000158028878390572038850000007133821384978439837_);">
						<g>
							<polygon style="fill:#3B455A;" points="553.279,610.223 579.121,610.588 586.76,635.278 565.639,650.172 544.947,634.688 
															"/>
						</g>
						<g>
							
								<rect x="548.878" y="589.376" transform="matrix(0.8952 -0.4456 0.4456 0.8952 -211.213 308.2145)" style="fill:#3B455A;" width="1.785" height="27.697"/>
						</g>
					</g>
					<g style="clip-path:url(#SVGID_00000158028878390572038850000007133821384978439837_);">
						<g>
							<polygon style="fill:#3B455A;" points="567.628,567.107 573.532,541.946 599.286,539.786 609.299,563.612 589.733,580.497 
															"/>
						</g>
						<g>
							
								<rect x="548.043" y="568.574" transform="matrix(0.9174 -0.398 0.398 0.9174 -180.2231 270.669)" style="fill:#3B455A;" width="27.697" height="1.785"/>
						</g>
					</g>
					<g style="clip-path:url(#SVGID_00000158028878390572038850000007133821384978439837_);">
						<g>
							<polygon style="fill:#3B455A;" points="513.956,610.47 488.112,610.738 480.381,635.399 501.446,650.372 522.196,634.966 
															"/>
						</g>
						<g>
							
								<rect x="503.642" y="602.591" transform="matrix(0.4489 -0.8936 0.8936 0.4489 -254.0746 794.9966)" style="fill:#3B455A;" width="27.697" height="1.785"/>
						</g>
					</g>
					<g style="clip-path:url(#SVGID_00000158028878390572038850000007133821384978439837_);">
						<g>
							<polygon style="fill:#3B455A;" points="499.555,567.128 493.375,542.033 467.598,540.156 457.848,564.091 477.598,580.76 
															"/>
						</g>
						<g>
							
								<rect x="504.424" y="555.576" transform="matrix(0.3879 -0.9217 0.9217 0.3879 -215.5227 814.3313)" style="fill:#3B455A;" width="1.785" height="27.697"/>
						</g>
					</g>
					<g style="clip-path:url(#SVGID_00000158028878390572038850000007133821384978439837_);">
						
							<rect x="519.216" y="544.593" transform="matrix(0.0018 -1 1 0.0018 -12.6684 1078.2797)" style="fill:#3B455A;" width="29.175" height="1.786"/>
					</g>
				</g>
			</g>
			<polygon style="fill:#EBB044;" points="477.222,751.088 329.329,676.249 329.526,571.26 477.394,628.424 			"/>
			<polygon style="fill:#D89830;" points="477.222,751.088 639.375,679.758 639.573,574.351 477.394,628.424 			"/>
			<g id="XMLID_1142_">
				<path id="XMLID_1160_" style="fill:#474EBB;" d="M464.549,545.127c-7.261,2.323-11.265,10.092-8.942,17.353l0,0
					c2.323,7.261,10.092,11.265,17.353,8.942l19.055-6.095c7.261-2.323,11.265-10.092,8.942-17.353l0,0
					c-2.323-7.261-10.092-11.265-17.353-8.942L464.549,545.127z"/>
				<path id="XMLID_1159_" style="fill:#474EBB;" d="M484.727,589.679c-8.216-4.234-18.307-1.005-22.541,7.21l0,0
					c-4.233,8.216-1.005,18.307,7.21,22.541l21.559,11.109c8.216,4.234,18.308,1.005,22.541-7.21l0,0
					c4.234-8.216,1.005-18.308-7.21-22.541L484.727,589.679z"/>
				<path id="XMLID_1158_" style="fill:#8EC3CB;" d="M414.086,612.275c4.233-8.216,14.325-11.444,22.541-7.21l0,0
					c8.216,4.233,11.444,14.325,7.21,22.541l-11.109,21.559c-4.234,8.216-14.326,11.444-22.541,7.21l0,0
					c-8.216-4.233-11.444-14.325-7.21-22.541L414.086,612.275z"/>
				<path id="XMLID_1157_" style="fill:#474EBB;" d="M384.375,570.773c-7.261,2.323-11.265,10.092-8.942,17.353l0,0
					c2.323,7.261,10.092,11.265,17.353,8.942l19.055-6.095c7.261-2.323,11.265-10.092,8.942-17.353l0,0
					c-2.323-7.261-10.092-11.265-17.353-8.942L384.375,570.773z"/>
				<path id="XMLID_1156_" style="fill:#474EBB;" d="M411.609,608.78c6.457,20.188,28.058,31.319,48.246,24.861l0,0
					c20.188-6.458,31.319-28.058,24.861-48.246l-4.272-13.356c-6.458-20.188-28.058-31.319-48.246-24.861l0,0
					c-20.188,6.457-31.319,28.058-24.861,48.246L411.609,608.78z"/>
				<g id="XMLID_1143_">
					
						<ellipse id="XMLID_1155_" transform="matrix(0.9179 -0.3967 0.3967 0.9179 -173.7712 211.9333)" style="fill:#474EBB;" cx="425.435" cy="526.036" rx="41.441" ry="41.441"/>
					<path id="XMLID_1154_" style="fill:#F2F1F0;" d="M426.186,528.382c14.119-4.516,28.877-1.063,39.418,7.852
						c-3.41,13.378-13.424,24.755-27.543,29.272c-14.119,4.516-28.876,1.063-39.418-7.853
						C402.053,544.275,412.066,532.899,426.186,528.382z"/>
					<g id="XMLID_1151_">
						<path id="XMLID_1153_" style="fill:#474EBB;" d="M432.194,498.042c3.258,10.187,14.158,15.803,24.345,12.545
							c10.187-3.258,15.803-14.158,12.545-24.344c-3.258-10.187-14.158-15.803-24.345-12.545
							C434.553,476.956,428.936,487.856,432.194,498.042z"/>
						<path id="XMLID_1152_" style="fill:#474EBB;" d="M366.795,518.962c3.258,10.187,14.158,15.803,24.344,12.545
							c10.187-3.258,15.803-14.158,12.545-24.345c-3.258-10.187-14.158-15.803-24.344-12.545
							C369.153,497.875,363.537,508.775,366.795,518.962z"/>
					</g>
					<g id="XMLID_1148_">
						<path id="XMLID_1150_" style="fill:#3B455A;" d="M438.539,515.194c0.713,2.229,3.098,3.458,5.327,2.745
							c2.229-0.713,3.458-3.098,2.745-5.328c-0.713-2.229-3.098-3.458-5.327-2.745C439.055,510.579,437.826,512.965,438.539,515.194
							z"/>
						<path id="XMLID_1149_" style="fill:#3B455A;" d="M400.399,527.394c0.713,2.229,3.098,3.458,5.327,2.745
							c2.229-0.713,3.458-3.098,2.745-5.328c-0.713-2.229-3.098-3.458-5.327-2.745C400.915,522.779,399.686,525.164,400.399,527.394
							z"/>
					</g>
					<path id="XMLID_1147_" style="fill:#3B455A;" d="M418.684,545.789c0.607-1.178,2.055-1.642,3.234-1.034
						c2.368,1.22,4.945,1.627,7.408,1.324l-3.05-9.534c-5.309-1.689-6.28-5.479-6.28-5.479c-0.611-1.911,0.378-4.157,2.29-4.768
						l5.868-1.877c1.911-0.611,4.02,0.643,4.632,2.555c0.003,0.01,0.006,0.02,0.009,0.031c0.124,0.356,1.221,3.853-1.946,8.075
						l3.05,9.535c2.182-1.183,4.044-3.009,5.265-5.378c0.608-1.178,2.055-1.642,3.234-1.034c1.179,0.607,1.642,2.055,1.034,3.234
						c-2.223,4.315-5.994,7.323-10.288,8.696c-4.294,1.373-9.111,1.112-13.425-1.111
						C418.54,548.416,418.076,546.968,418.684,545.789z"/>
					<g id="XMLID_1144_">
						<path id="XMLID_1146_" style="fill:#EDE6E6;" d="M454.733,483.739c4.857,3.066,6.309,9.488,3.243,14.345l-17.588-11.103
							C443.453,482.125,449.876,480.673,454.733,483.739z"/>
						<path id="XMLID_1145_" style="fill:#EDE6E6;" d="M377.029,508.594c2.176-5.315,8.249-7.861,13.564-5.685l-7.88,19.249
							C377.398,519.983,374.853,513.91,377.029,508.594z"/>
					</g>
				</g>
			</g>
			<polygon style="fill:#F9C067;" points="477.394,628.424 506.232,677.943 663.627,615.806 639.435,574.35 			"/>
			<polygon style="fill:#D89830;" points="302.947,604.254 443.42,671.025 477.394,628.424 329.371,571.259 			"/>
		</g>
		<g>
			<g>
				<polygon style="fill:#EAC1A4;" points="810.761,258.634 801.827,249.292 805.288,233.286 814.102,233.477 816.391,247.534 
					820.806,250.319 820.659,257.079 				"/>
			</g>
			<g>
				<g>
					<path style="fill:#EAC1A4;" d="M876.241,341.289c4.426-0.201,8.851-0.401,13.277-0.602c0.232-3.525,0.181-7.068-0.151-10.585
						c0.04,0.427,7.116-3.32,7.741-4.169c1.799-2.442,2.002-6.538,2.747-9.44c1.587-6.183,3.076-13.144-0.2-18.623
						c-3.393-5.674-10.714-7.604-17.323-7.764c-8.298-0.201-17.558,2.235-21.811,9.362c-3.841,6.438,1.038,15.913,2.439,22.711
						c0.691,3.352,1.742,7.176,4.86,8.586c1.655,0.749,3.662,0.663,5.141,1.719C875.57,334.345,874.991,338.339,876.241,341.289z"/>
				</g>
				<g>
					<path style="fill:#3B455A;" d="M847.426,287.197c-0.502-4.585-1.004-9.171-1.506-13.756c-0.186-1.703-0.366-3.47,0.181-5.093
						c0.911-2.7,3.647-4.39,6.396-5.139c2.749-0.75,5.645-0.783,8.426-1.401c2.968-0.659,5.853-1.988,8.891-1.86
						c5.778,0.244,10.21,5.594,15.922,6.496c7.909,1.249,15.163-2.387,19.954,6.909c0.88,1.708,1.127,3.676,1.904,5.433
						c1.003,2.27,2.825,4.059,4.251,6.091c6.268,8.934,4.272,22.516-3.291,30.112c-3.667,3.683-5.163,7.011-10.223,8.199
						c2.309-4.716-0.787-23.48-7.137-25.575c-1.682-0.554-6.727,1.512-8.588,1.787c-4.123,0.61-8.132,1.28-12.008,2.893
						c-5.754,2.396-12.002,4.098-18.234,4.575c-0.797,0.061-1.688,0.092-2.291-0.433c-0.567-0.494-0.686-1.315-0.768-2.063
						C848.679,298.648,848.052,292.923,847.426,287.197z"/>
				</g>
			</g>
			<g>
				<g>
					<g>
						<polygon style="fill:#3B455A;" points="947.206,679.51 949,686.984 935.847,698.045 926.579,692.365 932.259,683.098 
							945.412,672.037 						"/>
					</g>
					<g>
						<polygon style="fill:#474EBB;" points="916.536,448.274 921.984,470.972 915.329,576.591 947.41,676.914 933.297,683.437 
							869.177,567.665 861.519,530.658 857.513,452.396 						"/>
					</g>
				</g>
				<g>
					<g>
						<polygon style="fill:#474EBB;" points="828.034,457.444 827.083,555.547 845.807,681.999 860.022,681.972 868.781,565.245 
							888.014,448.498 						"/>
					</g>
					<g>
						<polygon style="fill:#3B455A;" points="859.937,680.281 859.951,687.966 844.594,695.681 836.894,688.01 844.565,680.31 
													"/>
					</g>
				</g>
				<g>
					<path style="fill:#FFFFFF;" d="M933.498,476.011c0.213,8.95-0.046,21.013-3.484,21.461c-0.644,0.084-1.263-0.233-1.826-0.54
						c-5.952-3.235-10.167-7.796-16.034-10.922c-6.149-3.276-13.18-5.009-20.074-6.219c-10.309-1.864-20.844-3.012-31.345-3.175
						c-8.255-0.129-16.547,0.59-24.764,1.289c-6.837,0.582-13.196,2.621-20.164,2.151c-7.141-0.482-14.178-2.656-20.289-6.395
						c-0.224-0.137-0.461-0.293-0.554-0.538c-0.102-0.268-0.004-0.567,0.094-0.836c1.451-3.999,2.492-7.959,5.134-11.273
						c2.95-3.702,5.043-8.401,7.173-12.613c4.439-8.776,8.617-17.973,11.714-27.32c4.681-12.705,10.034-25.083,14.558-37.83
						c3.136-8.835,5.995-17.827,10.257-26.206c3.337-6.56,9.289-16.146,16.475-19.046c2.432-0.981,5.117-1.075,7.739-1.155
						c7.952-0.243,15.904-0.487,23.857-0.73c2.899-0.089,5.914-0.156,8.56,1.034c3.964,1.783,6.21,5.938,8.175,9.815
						c8.808,17.384,14.439,36.134,17.609,55.475c1.655,10.099,3.188,20.218,4.385,30.375c1.336,11.335,2.26,22.722,2.472,34.129
						C933.189,468.208,933.397,471.758,933.498,476.011z"/>
				</g>
			</g>
			<g>
				<polygon style="fill:#FFFFFF;" points="840.395,369.436 794.922,332.369 806.179,254.138 823.566,254.037 821.081,321.854 
					861.315,341.434 				"/>
			</g>
		</g>
		<g>
			
				<rect x="820.247" y="420.82" transform="matrix(0.9765 0.2155 -0.2155 0.9765 134.5103 -165.7914)" style="fill:#FFFFFF;" width="14.558" height="226.217"/>
			<path style="fill:#FFFFFF;" d="M776.942,580.995l-9.216,41.762c-8.749,39.642,25.999,64.34,25.999,64.34
				s41.914-7.779,50.663-47.422l9.216-41.762L776.942,580.995z"/>
			<g>
				<g>
					<path style="fill:#3B455A;" d="M849.2,435.717l-2.023-1.439c-1.208-0.857-29.505-21.416-22.1-54.97l1.263-5.722l69.747,15.392
						l-1.263,5.722c-7.405,33.554-41.726,40.294-43.183,40.563L849.2,435.717z M835.682,387.649
						c-1.237,18.35,11.336,31.163,16.311,35.48c6.383-1.801,23.108-8.056,29.706-25.324L835.682,387.649z"/>
				</g>
				
					<rect x="841.385" y="423.125" transform="matrix(0.9765 0.2155 -0.2155 0.9765 114.3654 -172.5974)" style="fill:#3B455A;" width="14.558" height="30.045"/>
			</g>
		</g>
		<g>
			<g>
				<polygon style="fill:#EAC1A4;" points="879.054,418.169 872.573,420.762 866.953,418.249 865.816,419.169 866.892,420.615 
					861.631,419.864 857.953,422.118 857.549,427.844 860.855,432.767 866.583,432.566 872.361,428.95 881.386,425.785 				"/>
			</g>
			<g>
				<polygon style="fill:#FFFFFF;" points="871.565,416.465 907.923,393.439 900.525,337.147 938.875,367.095 933.004,416.907 
					876.504,429.152 				"/>
			</g>
		</g>
	</g>
</g>
</svg>
